<svg width="32" height="32" viewBox="0 0 32 32" fill="none" xmlns="http://www.w3.org/2000/svg">
  <!-- Background with gradient -->
  <defs>
    <linearGradient id="bg" x1="0%" y1="0%" x2="100%" y2="100%">
      <stop offset="0%" style="stop-color:#3B82F6;stop-opacity:1" />
      <stop offset="100%" style="stop-color:#1E40AF;stop-opacity:1" />
    </linearGradient>
  </defs>
  
  <!-- Main circle background -->
  <circle cx="16" cy="16" r="15" fill="url(#bg)" stroke="#1E3A8A" stroke-width="2"/>
  
  <!-- Home icon -->
  <path d="M16 6L8 12V26C8 26.5 8.5 27 9 27H11V20C11 19.5 11.5 19 12 19H20C20.5 19 21 19.5 21 20V27H23C23.5 27 24 26.5 24 26V12L16 6Z" fill="white"/>
  
  <!-- Heart accent -->
  <path d="M16 28C16 28 12 24 12 20.5C12 18.5 13.5 17 16 17C18.5 17 20 18.5 20 20.5C20 24 16 28 16 28Z" fill="#EF4444"/>
  
  <!-- Small plus in heart -->
  <rect x="15" y="20" width="2" height="4" fill="white" rx="0.5"/>
  <rect x="14" y="21" width="4" height="2" fill="white" rx="0.5"/>
</svg>
